<?xml version="1.0" standalone="no"?>
<!DOCTYPE svg PUBLIC "-//W3C//DTD SVG 20010904//EN"
 "http://www.w3.org/TR/2001/REC-SVG-20010904/DTD/svg10.dtd">
<svg version="1.0" xmlns="http://www.w3.org/2000/svg"
 width="194.000000pt" height="295.000000pt" viewBox="0 0 194.000000 295.000000"
 preserveAspectRatio="xMidYMid meet">

<g transform="translate(0.000000,295.000000) scale(0.100000,-0.100000)"
fill="#000000" stroke="none">
<path d="M974 2875 c-282 -49 -519 -192 -706 -424 -63 -78 -114 -173 -103
-191 13 -20 35 -8 141 78 133 107 222 163 326 208 256 109 469 105 766 -16 57
-23 119 -44 138 -47 56 -9 119 22 195 97 59 57 69 72 69 102 0 47 -36 79 -135
122 -151 65 -219 78 -425 82 -127 2 -210 -1 -266 -11z"/>
<path d="M430 2196 c-58 -15 -112 -48 -174 -106 -63 -58 -90 -102 -115 -186
-41 -138 -53 -240 -58 -500 -9 -431 31 -681 143 -900 79 -155 172 -249 319
-320 152 -74 233 -88 485 -88 202 0 221 1 314 27 161 43 252 93 355 195 90 88
141 167 141 217 0 38 -22 32 -140 -35 -175 -100 -306 -134 -515 -134 -163 0
-228 14 -351 74 -64 31 -96 56 -156 118 -174 182 -242 429 -242 872 0 237 5
298 55 578 38 212 37 215 -61 188z"/>
<path d="M1144 2136 c-69 -30 -50 -36 125 -36 l171 0 0 -83 c0 -82 1 -84 35
-117 l35 -34 0 112 c0 62 3 112 7 112 3 0 15 -7 25 -17 17 -15 18 -14 18 30
l0 47 -192 0 c-140 -1 -202 -5 -224 -14z"/>
<path d="M1630 2063 l0 -77 57 -58 57 -58 86 0 85 0 -135 135 c-74 74 -138
135 -142 135 -5 0 -8 -35 -8 -77z"/>
<path d="M1595 1780 l39 -40 83 0 83 0 0 -330 c0 -271 -3 -337 -15 -367 l-15
-36 32 7 c44 8 79 35 100 77 16 30 18 70 18 367 l0 332 -147 0 c-112 0 -155 4
-177 15 -43 23 -44 19 -1 -25z"/>
</g>
</svg>
